<?xml version="1.0" encoding="utf-8"?>
<svg viewBox="0 0 1200 350" xmlns="http://www.w3.org/2000/svg">
  <path id="path" d="M1105.45 273 C1087.25 273 1073.6 268.25 1064.5 258.75 1055.4 249.25 1050.85 235.7 1050.85 218.1 L1050.85 80.7 1100.65 80.7 1100.65 123.3 1160.65 123.3 1160.65 164.7 1100.65 164.7 1100.65 214.2 C1100.65 226 1106.55 231.9 1118.35 231.9 L1159.15 231.9 1159.15 273 Z M939.55 273 C927.95 273 917.25 271.2 907.45 267.6 897.65 264 889.15 258.9 881.95 252.3 874.75 245.7 869.15 237.8 865.15 228.6 861.15 219.4 859.15 209.2 859.15 198 859.15 187 861.15 176.9 865.15 167.7 869.15 158.5 874.75 150.6 881.95 144 889.15 137.4 897.65 132.3 907.45 128.7 917.25 125.1 927.95 123.3 939.55 123.3 L977.65 123.3 C986.25 123.3 993.75 124.5 1000.15 126.9 1006.55 129.3 1011.9 132.6 1016.2 136.8 1020.5 141 1023.7 146.05 1025.8 151.95 1027.9 157.85 1028.95 164.3 1028.95 171.3 1028.95 184.5 1025.15 194.4 1017.55 201 1009.95 207.6 997.45 210.9 980.05 210.9 L926.65 210.9 926.65 183.6 969.55 183.6 C977.35 183.6 981.25 180.1 981.25 173.1 981.25 165.7 977.45 162 969.85 162 L939.25 162 C930.25 162 922.95 165.1 917.35 171.3 911.75 177.5 908.95 186.3 908.95 197.7 908.95 209.1 911.75 217.65 917.35 223.35 922.95 229.05 930.25 231.9 939.25 231.9 L1020.85 231.9 1020.85 273 Z M787.45 273 L787.45 194.4 C787.45 177.4 778.75 168.9 761.35 168.9 L711.25 168.9 711.25 273 660.85 273 660.85 123.3 762.55 123.3 C787.35 123.3 806.05 129.5 818.65 141.9 831.25 154.3 837.55 171.9 837.55 194.7 L837.55 273 Z M484.15 325.2 L484.15 282 500.05 282 C506.45 282 511.45 280.7 515.05 278.1 518.65 275.5 521.55 272.3 523.75 268.5 L451.75 123.3 502.45 123.3 546.85 219.3 592.45 123.3 643.45 123.3 560.35 287.7 C557.15 294.1 553.8 299.65 550.3 304.35 546.8 309.05 542.85 312.95 538.45 316.05 534.05 319.15 529.1 321.45 523.6 322.95 518.1 324.45 511.75 325.2 504.55 325.2 Z M389.65 273 L338.35 210.3 C336.75 208.1 335.55 206.05 334.75 204.15 333.95 202.25 333.55 200.2 333.55 198 L333.55 194.4 C333.55 190 335.05 185.8 338.05 181.8 L387.85 123.3 444.25 123.3 384.25 195.9 447.25 273 Z M273.85 273 L273.85 62.7 323.95 62.7 323.95 273 Z M38.95 273 L38.95 222.6 184.75 222.6 C188.55 222.6 191.65 221.45 194.05 219.15 196.45 216.85 197.65 213.6 197.65 209.4 197.65 205.2 196.45 201.9 194.05 199.5 191.65 197.1 188.55 195.9 184.75 195.9 L98.95 195.9 C89.95 195.9 81.6 194.45 73.9 191.55 66.2 188.65 59.6 184.65 54.1 179.55 48.6 174.45 44.3 168.3 41.2 161.1 38.1 153.9 36.55 145.9 36.55 137.1 36.55 128.3 38.1 120.25 41.2 112.95 44.3 105.65 48.6 99.4 54.1 94.2 59.6 89 66.2 85 73.9 82.2 81.6 79.4 89.95 78 98.95 78 L247.15 78 247.15 128.1 101.35 128.1 C97.55 128.1 94.5 129.2 92.2 131.4 89.9 133.6 88.75 136.8 88.75 141 88.75 145 89.9 148.2 92.2 150.6 94.5 153 97.55 154.2 101.35 154.2 L187.15 154.2 C196.35 154.2 204.75 155.65 212.35 158.55 219.95 161.45 226.55 165.5 232.15 170.7 237.75 175.9 242.1 182.15 245.2 189.45 248.3 196.75 249.85 204.7 249.85 213.3 249.85 222.3 248.3 230.45 245.2 237.75 242.1 245.05 237.75 251.35 232.15 256.65 226.55 261.95 219.95 266 212.35 268.8 204.75 271.6 196.35 273 187.15 273 Z" fill-opacity="1" stroke="none" style="fill: rgb(112, 178, 105);"/>
</svg>