<?xml version="1.0" encoding="UTF-8"?>
<svg width="313px" height="186px" viewBox="0 0 313 186" version="1.1" xmlns="http://www.w3.org/2000/svg" xmlns:xlink="http://www.w3.org/1999/xlink">
    <!-- Generator: Sketch 52.2 (67145) - http://www.bohemiancoding.com/sketch -->
    <title>Sia Wordmark</title>
    <desc>Created with Sketch.</desc>
    <g id="Page-1" stroke="none" stroke-width="1" fill="none" fill-rule="evenodd">
        <g id="Sia-Wordmark" transform="translate(0.771080, 0.562500)" fill="#1ED660">
            <path d="M283.628648,156.387499 L283.628648,114.381108 C283.628648,90.802966 264.769228,71.2020459 241.192052,71.0860355 C217.505633,70.9690584 198.210207,90.2635177 198.327184,113.950903 C198.444161,137.528079 218.044115,156.387499 241.622257,156.387499 L283.628648,156.387499 Z M240.977433,42.651892 C280.236311,42.651892 312.061825,74.4764388 312.061825,113.736284 L312.061825,184.820676 L240.977433,184.820676 C201.717588,184.820676 169.893041,152.995163 169.893041,113.736284 C169.893041,74.4764388 201.717588,42.651892 240.977433,42.651892 Z" id="Fill-1"></path>
            <polygon id="Fill-3" points="127.242116 184.820966 155.675292 184.820966 155.675292 42.6512153 127.242116 42.6512153"></polygon>
            <path d="M155.675486,14.2176518 C155.675486,22.0696209 149.310383,28.4347236 141.458414,28.4347236 C133.607412,28.4347236 127.242309,22.0696209 127.242309,14.2176518 C127.242309,6.36568276 133.607412,0.000580051888 141.458414,0.000580051888 C149.310383,0.000580051888 155.675486,6.36568276 155.675486,14.2176518" id="Fill-5"></path>
            <path d="M19.2036812,140.763608 C24.3535752,146.564127 30.6771075,151.349555 38.1694444,155.121826 C45.6637148,158.89603 52.8998621,160.805368 59.88272,160.856606 C67.4011593,160.913644 73.5903129,159.148353 78.4472807,155.559765 C83.306182,151.972144 85.750134,148.136068 85.777203,144.045735 C85.8081391,139.773653 84.3541424,136.325245 81.4190799,133.698576 C78.4830506,131.077709 74.3308458,129.282448 68.9682661,128.310861 L53.1454174,125.127343 C35.6230166,121.651865 23.4844641,116.872238 16.7239593,110.77976 C9.95958758,104.693082 6.61752196,96.5365855 6.68906169,86.3151045 C6.77220246,74.2384242 11.4493542,63.9106003 20.7311511,55.339367 C30.0081143,46.7671668 42.435726,42.5376218 58.0110859,42.6536322 C67.1401359,42.7213049 75.8109449,44.275844 84.0264131,47.3075818 C92.2380143,50.3422199 100.709672,55.1440828 109.438486,61.7112369 L101.260721,72.0622629 L93.4551565,81.9415133 C87.2253993,76.3198437 81.1696576,72.3725906 75.2763304,70.099754 C69.38397,67.8259506 63.8425409,66.6687471 58.6520433,66.6300769 C52.2067001,66.582706 46.5985651,68.0753729 41.8363391,71.106144 C37.0702461,74.1369151 34.6717315,78.2562503 34.6359616,83.4564154 C34.5847237,90.8907471 40.1909252,95.6713414 51.4535994,97.7972316 L79.6112515,103.581316 C102.492365,108.212063 113.869116,120.28101 113.734737,139.793955 C113.698967,144.997987 112.589135,150.237789 110.403306,155.517228 C108.218444,160.797634 104.871544,165.698106 100.367442,170.21671 C95.8585049,174.740148 90.0608862,178.321001 82.9716854,180.958304 C75.8805511,183.598507 67.6824844,184.888156 58.3755519,184.817583 C37.2500621,184.660969 17.7893213,176.621449 9.66753146e-05,160.691291 L19.2036812,140.763608 Z" id="Fill-6"></path>
        </g>
    </g>
</svg>